<svg xmlns="http://www.w3.org/2000/svg" xmlns:xlink="http://www.w3.org/1999/xlink" xmlns:a="http://ns.adobe.com/AdobeSVGViewerExtensions/3.0/" version="1.1" x="0px" y="0px" width="235.268px" height="236.395px" viewBox="0 0 235.268 236.395" enable-background="new 0 0 235.268 236.395" xml:space="preserve">
  <defs/>
  <g>
    <ellipse fill="#E0E0E0" cx="117.634" cy="118.198" rx="117.634" ry="118.196"/>
    <path fill="#FEFEFE" d="M117.623 236.395c34.074 0 64.76-14.563 86.243-37.826 -4.614-4.614-10.535-8.643-17.999-12.263 -9.806-4.926-45.769-14.781-45.769-24.635 -0.818-7.392 10.626-15.604 12.261-22.995 2.45-8.212-0.818-15.602-1.635-23.814 -0.818-13.14 6.536-35.313 0.817-46.81 -7.358-12.318-35.961-13.138-46.586-9.032 -13.894 6.569-33.511 25.456-32.695 41.059 0.818 16.424 12.261 32.027 17.166 47.631 11.895 34.528-30.712 38.992-56.966 52.026C53.885 222.321 84.118 236.395 117.623 236.395z"/>
  </g>
</svg>
