<svg xmlns="http://www.w3.org/2000/svg" version="1.1" x="0px" y="0px" width="16.668px" height="13.772px" viewBox="0 0 16.668 13.772" enable-background="new 0 0 16.668 13.772" xml:space="preserve"><path fill="#2480F8" d="M10.868 2.717c0-0.899 0-1.788 0-2.717 1.946 1.603 3.861 3.18 5.8 4.777 -1.927 1.587-3.846 3.167-5.794 4.772 0-0.923 0-1.816 0-2.733 -0.27 0.013-0.515 0.021-0.759 0.037C8.48 6.956 6.889 7.262 5.376 7.91 4.518 8.278 3.718 8.739 3.028 9.379c-1.268 1.176-2.108 2.608-2.574 4.267 -0.01 0.035-0.019 0.069-0.03 0.104 -0.001 0.004-0.01 0.005-0.052 0.022 -0.048-0.091-0.112-0.182-0.147-0.283 -0.162-0.465-0.242-0.947-0.223-1.439 0.095-2.538 0.982-4.743 2.851-6.492C4.3 4.205 6.066 3.457 7.986 3.05 8.89 2.858 9.808 2.774 10.73 2.73 10.771 2.728 10.811 2.722 10.868 2.717z"/></svg>