<svg xmlns="http://www.w3.org/2000/svg" version="1.1" x="0px" y="0px" width="273.079px" height="420.122px" viewBox="0 0 273.079 420.122" enable-background="new 0 0 273.079 420.122" xml:space="preserve"><path fill="#2B75B5" d="M84.42 162.795c-5.167-1.843-10.428-3.419-15.443-5.567 -12.775-5.47-25.501-11.064-38.125-16.874 -6.344-2.92-8.466-6.923-6.299-13.689 4.591-14.334 9.588-28.555 14.931-42.627 6.951-18.31 14.612-36.351 21.524-54.676 2.53-6.708 3.819-13.888 5.623-20.866 1.792-6.932 6.587-10.052 13.342-7.744 13.72 4.686 27.753 8.271 41 14.617 12.165 5.828 25.235 9.925 38.165 13.955 14.809 4.615 29.457 9.496 43.681 15.743 10.933 4.801 22.402 8.399 33.258 13.353 8.578 3.914 17.017 8.458 24.749 13.829 11.793 8.191 15.092 21.88 9.814 35.242 -10.316 26.117-20.586 52.252-30.791 78.412 -3.169 8.122-6.079 16.344-9.09 24.527 -2.481 6.744-5.504 9.213-12.607 8.422 -5.811-0.647-11.522-2.373-17.218-3.85 -14.265-3.7-28.498-7.524-42.737-11.321 -1.243-0.332-2.459-0.789-3.657-1.266 -4.733-1.885-5.119-1.941-7.557 2.687 -3.81 7.231-7.564 14.513-10.893 21.973 -12.201 27.35-24.235 54.775-36.277 82.195 -1.47 3.347-2.397 6.937-3.942 10.244 -3.176 6.8-6.51 13.529-9.944 20.203 -4.178 8.121-8.707 16.064-12.757 24.246 -6.541 13.217-12.794 26.575-19.235 39.842 -0.545 1.124-1.437 2.19-2.416 2.975 -7.914 6.351-16.655 10.956-26.696 13.1 -7.399 1.579-18.443-4.804-19.431-13.531 -0.501-4.426-2.082-8.775-3.529-13.038 -2.574-7.58-2.508-15.191 0.353-22.478 3.771-9.605 8.236-18.937 12.397-28.389 2.307-5.239 6.497-7.492 12.037-7.689 2.025-0.072 4.046-0.276 6.443-0.447 -1.316-2.813-2.551-5.259-3.621-7.777 -1.968-4.633-1.246-5.731 3.685-5.899 0.419-0.014 0.834-0.16 0.9-0.173 0.293-2.196 0.071-4.466 0.968-6.134 0.873-1.623 2.894-2.628 4.642-4.099 -1.941-3.977-4.352-8.396-6.228-13.033 -0.674-1.665-0.315-3.898 0.026-5.79 0.509-2.824 2.559-4.332 5.285-5.028 3.942-1.006 7.868-2.073 12.275-3.239 -2.23-3.607-4.311-6.841-6.259-10.153 -4.095-6.965-4.035-7.105 2.497-11.749 2.628-1.868 5.236-3.765 8.138-5.854 -0.63-1.134-1.215-2.234-1.845-3.308 -0.924-1.577-2.022-3.068-2.795-4.714 -2.112-4.499-1.458-6.192 3.113-7.853 4.958-1.802 9.982-3.421 14.965-5.153 1.1-0.382 2.152-0.904 3.415-1.442 -2.633-5.024-5.089-9.89-7.71-14.664 -2.606-4.747-2.257-9.038 0.795-13.589 7.67-11.436 12.548-24.25 17.592-36.964 0.515-1.299 1.042-2.593 1.516-3.907C84.547 163.513 84.436 163.163 84.42 162.795zM35.876 326.251c0.018 0.214-0.028 0.459 0.062 0.636 0.928 1.822 1.886 3.628 2.821 5.446 1.855 3.61 1.403 5.379-2.501 6.629 -3.021 0.967-6.3 1.256-9.491 1.526 -3.148 0.267-5.578 1.235-6.919 4.337 -4.184 9.675-8.741 19.202-12.564 29.016 -2.358 6.052-1.954 12.389 0.429 18.639 1.523 3.994 2.437 8.248 3.327 12.449 1.354 6.393 6.901 10.369 13.262 8.923 6.371-1.449 11.728-4.743 15.705-9.993 1.017-1.342 1.633-3.016 2.29-4.596 1.153-2.775 1.999-5.691 3.315-8.382 12.298-25.148 24.816-50.189 36.958-75.412 6.588-13.686 12.505-27.693 18.85-41.498 3.55-7.723 7.982-15.097 10.919-23.035 7.199-19.459 16.571-37.87 25.98-56.276 3.245-6.347 6.967-8.039 14.102-6.755 5.285 0.951 10.517 2.254 15.715 3.617 11.969 3.14 23.863 6.58 35.869 9.568 6.917 1.721 10.26 0.061 13.388-6.33 2.833-5.789 4.91-11.953 7.834-17.69 8.183-16.055 15.225-32.57 20.943-49.655 4.654-13.905 9.563-27.692 17.694-40.079 0.57-0.869 0.52-2.897-0.114-3.668 -2.299-2.797-4.588-5.901-7.579-7.77 -6.833-4.267-13.862-8.363-21.209-11.633 -11.105-4.943-22.544-9.137-33.851-13.624 -9.094-3.609-18.024-7.754-27.34-10.657 -22.114-6.89-44.176-13.723-65.245-23.612 -9.181-4.309-19.329-6.553-29.028-9.768 -4.795-1.589-6.504-0.717-7.534 4.257 -3.644 17.594-10.046 34.254-16.856 50.802 -7.046 17.123-13.922 34.318-20.677 51.557 -1.84 4.696-3.069 9.642-4.413 14.519 -1.095 3.974-0.267 5.634 3.376 7.651 0.564 0.312 1.159 0.575 1.754 0.826 16.656 7.023 32.617 15.717 50.167 20.601 4.626 1.288 6.204 4.986 4.255 9.787 -5.786 14.256-10.982 28.809-19.729 41.664 -1.555 2.285-1.754 4.475-0.376 6.93 3.055 5.445 5.94 10.985 9.023 16.413 1.359 2.393 1.047 4.195-1.477 5.217 -5.278 2.137-10.613 4.139-15.955 6.112 -1.67 0.617-3.439 0.965-5.272 1.467 1.998 3.606 3.707 6.353 5.073 9.261 1.181 2.514 0.721 4.649-1.918 6.331 -3.596 2.292-6.964 4.941-10.549 7.522 2.826 4.892 5.638 9.466 8.146 14.201 1.766 3.335 1.3 4.747-2.184 6.023 -4.026 1.475-8.247 2.416-12.379 3.603 -3.556 1.022-4.157 2.033-2.587 5.29 1.915 3.971 4.08 7.823 6.173 11.707 1.731 3.21 0.936 5.868-2.415 7.373 -0.944 0.424-2.088 0.402-3.038 0.567C41.746 322.754 41.508 323.245 35.876 326.251zM44.789 403.284c0.486 0.322 0.973 0.645 1.459 0.967 1.123-1.455 2.534-2.769 3.324-4.386 5.899-12.089 11.684-24.234 17.485-36.371 2.924-6.117 5.545-12.396 8.777-18.345 3.489-6.42 8.012-12.306 11.198-18.856 3.282-6.749 5.264-14.117 8.229-21.036 5.6-13.071 11.485-26.02 17.274-39.009 8.594-19.284 17.15-38.585 25.87-57.812 1.501-3.308 3.605-6.374 5.671-9.386 2.37-3.456 5.589-4.348 9.646-3.011 2.657 0.875 5.261 1.932 7.952 2.678 16.066 4.454 32.131 8.91 48.243 13.192 3.185 0.846 6.562 1.009 9.865 1.357 2.458 0.258 4.073-0.94 4.952-3.259 1.87-4.934 3.818-9.837 5.695-14.768 9.3-24.433 18.546-48.886 27.905-73.295 2.466-6.431 5.344-12.703 7.886-19.107 1.759-4.432 1.723-8.058-0.151-11.303 -4.038 9.039-8.167 17.535-11.669 26.283 -6.399 15.984-12.275 32.177-18.676 48.161 -3.156 7.88-6.966 15.5-10.54 23.211 -1.49 3.214-2.97 6.452-4.744 9.511 -3.457 5.961-8.697 8.543-15.525 7.148 -5.581-1.14-11.118-2.514-16.634-3.945 -11.768-3.053-23.486-6.305-35.272-9.284 -5.941-1.502-8.198-0.698-10.696 4.356 -7.25 14.668-14.349 29.414-21.245 44.252 -2.533 5.451-4.008 11.393-6.522 16.855 -8.238 17.902-16.676 35.713-25.142 53.509 -8.234 17.307-16.544 34.579-24.923 51.816C57.999 376.739 51.359 389.995 44.789 403.284zM199.866 106.199c-7.072-3.404-14.042-7.042-21.237-10.159 -12.638-5.475-25.441-10.57-38.126-15.938 -12.19-5.159-24.315-10.474-36.479-15.694 -4.132-1.773-5.149-3.256-4.325-7.725 0.711-3.857 1.54-7.744 2.857-11.424 1.476-4.126 5.115-5.687 9.38-4.218 3.96 1.364 7.708 3.344 11.668 4.711 11.999 4.141 24.113 7.952 36.071 12.205 11.146 3.964 22.172 8.271 33.207 12.54 8.427 3.26 16.834 6.578 25.155 10.096 4.877 2.062 4.838 2.914 2.287 7.444 -1.617 2.873-2.62 6.093-3.873 9.168 -0.365 0.896-0.623 1.834-0.962 2.741C212.131 108.903 208.495 110.409 199.866 106.199zM109.276 46.472c-3.366 2.518-3.408 6.204-3.827 9.842 -0.193 1.677 0.096 2.478 1.696 3.166 11.86 5.097 23.646 10.368 35.519 15.434 14.353 6.124 28.819 11.986 43.136 18.192 6.01 2.605 11.708 5.92 17.655 8.683 3.588 1.667 4.676 1.175 6.147-2.514 1.784-4.474 3.298-9.055 4.869-13.423C180.602 69.654 144.362 59.834 109.276 46.472zM172.925 122.002c-4.005-2.197-8.283-4.979-12.897-6.988 -11.14-4.851-22.46-9.288-33.663-13.996 -7.742-3.254-15.394-6.725-23.122-10.013 -2.868-1.22-5.864-2.137-8.754-3.309 -1.269-0.514-2.716-1.075-3.536-2.066 -0.723-0.873-1.31-2.736-0.855-3.525 0.938-1.624 2.337-0.837 3.818 0.038 2.09 1.235 4.513 1.9 6.774 2.855 11.696 4.941 23.377 9.919 35.082 14.839 8.528 3.584 17.532 6.306 25.524 10.827 12.118 6.855 25.122 11.21 38.049 15.922 0.908 0.331 2.034 0.517 2.615 1.167 0.592 0.663 1.001 1.907 0.796 2.722 -0.143 0.568-1.423 0.958-2.261 1.199 -0.439 0.126-1.031-0.21-1.536-0.389C190.444 128.253 181.931 125.214 172.925 122.002zM54.993 85.068c2.766-6.192 5.512-12.393 8.313-18.569 0.691-1.524 1.273-3.587 3.658-2.399 2.103 1.048 1.099 2.71 0.484 4.186 -4.928 11.82-10.017 23.576-14.742 35.477 -2.419 6.092-4.244 12.423-6.234 18.679 -0.939 2.953 0.024 5.527 2.202 7.626 0.767 0.739 1.64 1.48 2.605 1.886 9.119 3.839 18.267 7.608 27.412 11.385 0.393 0.162 0.968 0.07 1.23 0.328 0.946 0.934 1.795 1.967 2.681 2.962 -1.231 0.497-2.649 1.658-3.659 1.373 -4.022-1.132-7.956-2.619-11.85-4.158 -4.196-1.659-8.35-3.439-12.448-5.329 -2.819-1.3-5.726-2.58-8.212-4.393 -4.548-3.319-5.941-8.471-4.093-13.798 4.089-11.786 8.239-23.55 12.365-35.323C54.8 85.024 54.897 85.046 54.993 85.068zM163.873 136.477c-11.728-5.239-22.49-10.458-33.569-14.881 -11.19-4.468-22.694-8.148-34.062-12.171 -0.709-0.251-1.674-0.285-2.076-0.78 -0.657-0.81-1.448-2.047-1.236-2.856 0.17-0.649 1.887-1.485 2.668-1.281 3.327 0.868 6.612 1.959 9.82 3.206 18.059 7.018 36.102 14.075 54.117 21.205 2.08 0.823 4.072 2.017 5.855 3.367 0.693 0.525 1.235 2.257 0.878 2.905C165.826 135.992 164.376 136.236 163.873 136.477z"/></svg>