<svg xmlns="http://www.w3.org/2000/svg" version="1.1" x="0" y="0" width="12.95" height="13.47" viewBox="0 0 12.95 13.47" enable-background="new 0 0 12.949 13.468" xml:space="preserve"><g id="_x37_trmaB.tif_2_"><path fill="#B0B0B0" d="M5.24 5.98c0-0.04 0-0.07 0-0.1 0-0.9 0-1.8 0-2.7C5.24 2.19 4.45 1.32 3.46 1.21 2.37 1.1 1.43 1.79 1.23 2.87c-0.02 0.1-0.03 0.21-0.03 0.32C1.2 4.59 1.2 6 1.2 7.4c0 0.33-0.17 0.56-0.46 0.64 -0.37 0.1-0.74-0.19-0.74-0.57 0-1.45-0.01-2.9 0-4.35 0.01-0.8 0.31-1.5 0.86-2.09 0.68-0.72 1.52-1.07 2.51-1.02 1.56 0.07 2.86 1.28 3.04 2.82C6.43 2.95 6.44 3.08 6.44 3.2 6.44 4.09 6.44 4.98 6.44 5.87c0 0.04 0 0.07 0 0.12 0.05 0 0.08 0 0.12 0 1.72 0 3.44 0 5.16 0 0.59 0 1.06 0.36 1.2 0.93 0.02 0.1 0.03 0.2 0.03 0.3 0 1.67 0 3.35 0 5.02 0 0.71-0.52 1.23-1.24 1.23 -2.17 0-4.34 0-6.51 0 -0.72 0-1.24-0.52-1.24-1.24 0-1.66 0-3.32 0-4.99 0-0.73 0.49-1.23 1.22-1.26C5.2 5.98 5.22 5.98 5.24 5.98zM8.46 11.19c0.16 0 0.32 0 0.48 0 0.01 0 0.02 0 0.03 0 0.19-0.01 0.27-0.12 0.23-0.3 -0.1-0.39-0.2-0.78-0.31-1.16 -0.02-0.06-0.01-0.09 0.04-0.13C9.27 9.32 9.3 8.82 9.01 8.51 8.7 8.18 8.21 8.18 7.9 8.52 7.62 8.83 7.66 9.33 7.99 9.59 8.04 9.63 8.05 9.66 8.04 9.72c-0.1 0.37-0.2 0.75-0.3 1.12 -0.06 0.25 0.02 0.35 0.27 0.35C8.16 11.19 8.31 11.19 8.46 11.19z"/></g></svg>