<svg xmlns="http://www.w3.org/2000/svg" version="1.1" x="0px" y="0px" width="99.557px" height="168.601px" viewBox="0 0 99.557 168.601" enable-background="new 0 0 99.557 168.601" xml:space="preserve"><g id="_x32_kRARu.tif_1_"><path fill="#3995F8" d="M36.685 84.301c2.138 2.704 44.46 44.413 58.171 58.154 4.283 4.292 5.712 9.466 3.989 15.262 -1.748 5.878-5.849 9.49-11.87 10.608 -5.425 1.008-10.049-0.784-13.926-4.675 -8.35-8.382-16.728-16.737-25.094-25.103C33.749 124.341 19.543 110.137 5.34 95.931c-7.113-7.114-7.119-16.058-0.02-23.158C28.022 50.071 50.714 27.359 73.434 4.675c4.345-4.339 9.615-5.715 15.45-3.889 5.693 1.781 9.222 5.84 10.35 11.694 1.028 5.333-0.601 9.96-4.456 13.811C81.089 39.966 37.438 83.508 36.685 84.301z"/></g></svg>