<svg xmlns="http://www.w3.org/2000/svg" version="1.1" x="0px" y="0px" width="11.741px" height="13.54px" viewBox="0 0 11.741 13.54" enable-background="new 0 0 11.741 13.54" xml:space="preserve"><path fill="#E3E3E3" d="M7.543 6.729c0-1.57 0.016-3.141-0.006-4.71 -0.013-0.938 0.6-1.626 1.337-1.888 0.893-0.317 1.906-0.044 2.471 0.672 0.28 0.354 0.393 0.762 0.393 1.209 -0.002 3.169-0.008 6.339 0.003 9.508 0.004 1.113-0.81 1.826-1.686 1.978 -0.73 0.126-1.387-0.044-1.935-0.556 -0.373-0.348-0.575-0.784-0.576-1.299C7.541 10.005 7.543 8.367 7.543 6.729zM0.001 6.774c0-1.593 0.002-3.185-0.001-4.778 -0.001-0.442 0.112-0.844 0.39-1.19C0.795 0.301 1.332 0.04 1.974 0.007c0.693-0.035 1.291 0.19 1.761 0.71C4.041 1.056 4.195 1.46 4.195 1.918c0.001 3.208-0.002 6.416 0.002 9.624 0.001 0.709-0.299 1.249-0.88 1.638C2.417 13.781 1.15 13.612 0.445 12.8 0.133 12.44-0.001 12.017 0 11.542 0.003 9.953 0.001 8.363 0.001 6.774z"/></svg>