<svg xmlns="http://www.w3.org/2000/svg" version="1.1" x="0" y="0" width="11.74" height="13.54" viewBox="0 0 11.74 13.54" enable-background="new 0 0 11.741 13.54" xml:space="preserve"><path fill="#2480F8" d="M7.54 6.73c0-1.57 0.02-3.14-0.01-4.71 -0.01-0.94 0.6-1.63 1.34-1.89 0.89-0.32 1.91-0.04 2.47 0.67 0.28 0.35 0.39 0.76 0.39 1.21 0 3.17-0.01 6.34 0 9.51 0 1.11-0.81 1.83-1.69 1.98 -0.73 0.13-1.39-0.04-1.93-0.56 -0.37-0.35-0.57-0.78-0.58-1.3C7.54 10.01 7.54 8.37 7.54 6.73zM0 6.77c0-1.59 0-3.18 0-4.78 0-0.44 0.11-0.84 0.39-1.19C0.8 0.3 1.33 0.04 1.97 0.01c0.69-0.04 1.29 0.19 1.76 0.71C4.04 1.06 4.2 1.46 4.2 1.92c0 3.21 0 6.42 0 9.62 0 0.71-0.3 1.25-0.88 1.64C2.42 13.78 1.15 13.61 0.45 12.8 0.13 12.44 0 12.02 0 11.54 0 9.95 0 8.36 0 6.77z"/></svg>