<svg xmlns="http://www.w3.org/2000/svg" version="1.1" x="0px" y="0px" width="14.241px" height="13.514px" viewBox="0 0 14.241 13.514" enable-background="new 0 0 14.241 13.514" xml:space="preserve"><path fill="#E3E3E3" d="M10.099 4.249c0.191 0.085 0.201 0.26 0.197 0.422 -0.011 0.415-0.121 0.804-0.383 1.134 -0.081 0.102-0.205 0.17-0.308 0.256 -0.028 0.023-0.06 0.053-0.068 0.086 -0.02 0.085-0.032 0.173-0.038 0.26C9.482 6.656 9.384 6.87 9.234 7.068 9.147 7.184 9.06 7.307 9.006 7.44c-0.09 0.222-0.009 0.336 0.228 0.333C9.42 7.769 9.551 7.844 9.642 7.997c0.075 0.125 0.153 0.25 0.214 0.383 0.105 0.229 0.274 0.382 0.506 0.475 0.584 0.233 1.168 0.465 1.749 0.705 0.477 0.197 0.947 0.408 1.378 0.697 0.015 0.01 0.03 0.021 0.046 0.03 0.494 0.309 0.729 0.753 0.704 1.336 -0.01 0.227-0.006 0.454-0.008 0.681 -0.001 0.129-0.078 0.219-0.179 0.271 -0.197 0.103-0.397 0.206-0.606 0.275 -0.617 0.204-1.257 0.305-1.899 0.394 -1.074 0.149-2.155 0.238-3.238 0.259 -1.028 0.02-2.057 0.011-3.085-0.016 -1.142-0.03-2.279-0.139-3.404-0.35 -0.475-0.089-0.947-0.191-1.388-0.398C0.312 12.682 0.2 12.6 0.098 12.514c-0.048-0.04-0.09-0.117-0.092-0.179 -0.007-0.329-0.01-0.658 0.003-0.987 0.017-0.433 0.251-0.744 0.59-0.991 0.486-0.355 1.032-0.595 1.583-0.823C2.705 9.318 3.23 9.103 3.759 8.902c0.304-0.115 0.528-0.295 0.658-0.601 0.06-0.143 0.16-0.269 0.248-0.399C4.725 7.813 4.816 7.78 4.921 7.779c0.022 0 0.044-0.002 0.066-0.003 0.249-0.01 0.325-0.114 0.236-0.347C5.183 7.324 5.121 7.224 5.05 7.137 4.86 6.903 4.728 6.65 4.736 6.339 4.737 6.31 4.726 6.281 4.724 6.252 4.719 6.147 4.684 6.077 4.576 6.027 4.484 5.985 4.401 5.905 4.338 5.822 4.05 5.445 3.916 5.016 3.948 4.54c0.008-0.112 0.04-0.213 0.15-0.277C4.121 4.25 4.12 4.181 4.116 4.139 4.063 3.671 3.993 3.203 3.956 2.733 3.927 2.35 3.951 1.965 4.054 1.589c0.098-0.357 0.29-0.628 0.637-0.791C4.955 0.674 5.203 0.517 5.456 0.37 5.88 0.122 6.345 0.01 6.829 0.001 7.411-0.01 7.982 0.082 8.533 0.276c0.228 0.08 0.431 0.189 0.57 0.405 0.042 0.065 0.15 0.118 0.23 0.121 0.428 0.014 0.656 0.267 0.793 0.632 0.156 0.412 0.181 0.846 0.15 1.278 -0.034 0.474-0.105 0.945-0.159 1.417C10.111 4.168 10.105 4.207 10.099 4.249z"/></svg>