<svg xmlns="http://www.w3.org/2000/svg" version="1.1" x="0px" y="0px" width="12.913px" height="15.102px" viewBox="0 0 12.913 15.102" enable-background="new 0 0 12.913 15.102" xml:space="preserve"><path fill="#B0B0B0" d="M5.311 12.953c0 0.716 0 1.419 0 2.149C3.534 13.79 1.775 12.492 0 11.181c1.768-1.3 3.529-2.594 5.304-3.899 0 0.724 0 1.43 0 2.155 0.054 0 0.099 0 0.143 0 1.875 0 3.751-0.002 5.626 0.001 0.768 0.001 1.35 0.332 1.675 1.035 0.541 1.17-0.318 2.477-1.618 2.479 -1.883 0.002-3.766 0.001-5.65 0.001C5.43 12.953 5.38 12.953 5.311 12.953zM7.606 2.14c0-0.718 0-1.418 0-2.14 1.775 1.305 3.531 2.596 5.303 3.898C11.141 5.197 9.383 6.49 7.601 7.799c0-0.063 0-0.103 0-0.143 0-0.624-0.002-1.248 0.002-1.872C7.604 5.68 7.578 5.648 7.469 5.649c-1.895 0.004-3.79 0.003-5.685 0.002 -1.073 0-1.871-0.873-1.774-1.941 0.08-0.877 0.852-1.57 1.754-1.57 1.891-0.001 3.782 0 5.674 0C7.486 2.14 7.536 2.14 7.606 2.14z"/></svg>