<svg xmlns="http://www.w3.org/2000/svg" version="1.1" x="0px" y="0px" width="897.982px" height="282.379px" viewBox="0 0 897.982 282.379" enable-background="new 0 0 897.982 282.379" xml:space="preserve"><g opacity="0.1"><path fill="#2B75B5" d="M783.756 57.42c-0.119 0.355-0.161 0.422-0.161 0.49 -0.02 2.031-0.748 4.505 0.159 5.961 0.812 1.305 3.395 1.586 5.248 2.153 10.684 3.268 19.647 8.897 25.714 18.551 2.567 4.084 1.838 8.555-1.771 10.909 -3.713 2.421-8.111 1.238-10.824-2.937 -5.303-8.161-13.357-11.695-22.506-13.354 -0.47-0.085-1.148 0.165-1.518 0.495 -1.339 1.196-2.587 2.493-4.03 3.909 2.318 2.299 4.44 4.477 6.644 6.567 1.973 1.871 2.845 4.102 2.802 6.811 -0.5 31.922-11.25 59.905-32.524 83.697 -17.578 19.659-39.341 32.498-64.987 38.69 -9.275 2.24-18.701 3.358-28.246 3.393 -5.011 0.018-8.331-3.002-8.297-7.492 0.033-4.382 3.323-7.346 8.206-7.391 53.787-0.5 99.424-38.888 109.103-91.889 0.896-4.907 1.115-9.936 1.723-14.9 0.177-1.448-0.313-2.426-1.327-3.428 -9.294-9.193-18.534-18.44-27.808-27.654 -2.169-2.155-3.641-4.565-2.93-7.754 1.334-5.983 8.139-7.918 12.758-3.538 4.109 3.897 8.042 7.98 12.035 11.999 0.715 0.719 1.34 1.527 2.133 2.44 2.815-2.606 5.43-4.474 5.317-8.939 -0.36-14.154-0.144-28.323-0.127-42.486 0.005-4.595 2.701-7.863 6.696-8.224 4.254-0.385 7.893 2.407 8.067 6.684 0.259 6.38 0.15 12.776 0.196 19.165 0.007 0.921 0.001 1.841 0.001 2.865 1.747 0 3.227 0 4.936 0 0-0.91 0-1.69 0-2.471 0.001-10.749-0.024-21.499 0.019-32.248 0.014-3.41 2.036-6.108 5.088-7.096 3.035-0.982 6.426-0.139 8.113 2.565 0.976 1.564 1.574 3.629 1.599 5.479 0.145 10.893 0.071 21.788 0.071 32.683 0 0.792 0 1.584 0 2.485 1.617 0.295 3.102 0.566 5.009 0.915 0-0.99 0-1.815 0-2.64 0-9.224-0.029-18.448 0.013-27.672 0.023-5.204 3.275-8.45 8.031-8.158 3.091 0.189 5.863 2.443 6.534 5.477 0.279 1.263 0.369 2.589 0.373 3.887 0.029 9.878 0.016 19.756 0.016 29.633 0 4.587 0 4.587 4.937 5.929 0-4.539-0.039-9.007 0.011-13.473 0.048-4.301 2.998-7.446 7.06-7.645 4.183-0.204 7.721 2.926 7.72 7.117 -0.001 22.95 0.48 45.918-0.268 68.845 -0.818 25.084-7.317 48.952-18.36 71.546 -13.893 28.424-33.708 51.865-59.386 70.281 -22.619 16.221-47.676 26.823-75.107 31.754 -10.743 1.931-21.565 2.927-32.473 2.976 -3.688 0.016-6.394-1.789-7.515-4.841 -1.837-5.003 1.652-9.71 7.186-10.067 8.608-0.555 17.252-0.958 25.79-2.101 16.941-2.268 33.063-7.47 48.415-14.968 29.279-14.301 52.729-35.194 70.26-62.661 12.57-19.696 20.675-41.12 24.431-64.192 1.637-10.058 2.295-20.178 2.243-30.358 -0.038-7.408-0.051-14.817 0.029-22.225 0.016-1.489-0.494-2.388-1.664-3.224 -6.763-4.834-14.412-7.53-22.499-8.789 -6-0.934-12.115-1.134-18.181-1.633C785.23 57.263 784.515 57.381 783.756 57.42zM857.329 90.705c0-10.844-0.073-18.108 0.031-25.369 0.053-3.674 2.812-6.674 6.327-7.303 3.638-0.65 7.283 1.298 8.61 4.764 0.431 1.124 0.661 2.401 0.654 3.606 -0.073 13.504-0.013 27.013-0.39 40.51 -0.339 12.146-2.413 24.098-5.301 35.894 -1.083 4.422-5.31 7.055-9.389 6.033 -4.42-1.108-6.914-5.058-5.808-9.668C856.171 122.054 857.781 104.697 857.329 90.705zM897.96 104.597c-0.443 12.956-2.444 25.671-5.676 38.206 -0.887 3.439-3.09 5.579-6.575 6.121 -3.232 0.503-5.823-0.81-7.653-3.506 -1.345-1.981-1.561-4.214-0.968-6.471 3.669-13.967 5.307-28.17 5.219-42.603 -0.028-4.681 3.517-8.107 7.934-8.049 4.347 0.058 7.59 3.397 7.706 8.034C898.017 99.084 897.96 101.841 897.96 104.597z"/></g><g opacity="0.1"><path fill="#2B75B5" d="M114.226 57.42c0.119 0.355 0.161 0.422 0.161 0.49 0.02 2.031 0.748 4.505-0.159 5.961 -0.813 1.305-3.395 1.586-5.248 2.153 -10.684 3.268-19.647 8.897-25.714 18.551 -2.567 4.084-1.838 8.555 1.771 10.909 3.713 2.421 8.111 1.238 10.824-2.937 5.303-8.161 13.357-11.695 22.506-13.354 0.47-0.085 1.148 0.165 1.518 0.495 1.339 1.196 2.587 2.493 4.03 3.909 -2.318 2.299-4.44 4.477-6.644 6.567 -1.973 1.871-2.845 4.102-2.802 6.811 0.5 31.922 11.25 59.905 32.524 83.697 17.578 19.659 39.341 32.498 64.987 38.69 9.275 2.24 18.701 3.358 28.246 3.393 5.011 0.018 8.331-3.002 8.297-7.492 -0.033-4.382-3.323-7.346-8.206-7.391 -53.787-0.5-99.424-38.888-109.103-91.889 -0.896-4.907-1.114-9.936-1.723-14.9 -0.177-1.448 0.313-2.426 1.327-3.428 9.294-9.193 18.534-18.44 27.808-27.654 2.169-2.155 3.641-4.565 2.93-7.754 -1.334-5.983-8.139-7.918-12.758-3.538 -4.109 3.897-8.042 7.98-12.035 11.999 -0.715 0.719-1.34 1.527-2.133 2.44 -2.815-2.606-5.43-4.474-5.317-8.939 0.36-14.154 0.144-28.323 0.127-42.486 -0.005-4.595-2.701-7.863-6.696-8.224 -4.254-0.385-7.893 2.407-8.067 6.684 -0.259 6.38-0.15 12.776-0.196 19.165 -0.007 0.921-0.001 1.841-0.001 2.865 -1.747 0-3.227 0-4.936 0 0-0.91 0-1.69 0-2.471 -0.001-10.749 0.024-21.499-0.019-32.248 -0.014-3.41-2.036-6.108-5.088-7.096 -3.035-0.982-6.426-0.139-8.113 2.565 -0.976 1.564-1.574 3.629-1.599 5.479 -0.145 10.893-0.071 21.788-0.071 32.683 0 0.792 0 1.584 0 2.485 -1.617 0.295-3.102 0.566-5.009 0.915 0-0.99 0-1.815 0-2.64 0-9.224 0.028-18.448-0.013-27.672 -0.023-5.204-3.275-8.45-8.031-8.158 -3.091 0.189-5.863 2.443-6.533 5.477 -0.279 1.263-0.369 2.589-0.373 3.887 -0.029 9.878-0.016 19.756-0.016 29.633 0 4.587 0 4.587-4.937 5.929 0-4.539 0.039-9.007-0.011-13.473 -0.048-4.301-2.998-7.446-7.06-7.645 -4.183-0.204-7.72 2.926-7.72 7.117 0.001 22.95-0.48 45.918 0.268 68.845 0.818 25.084 7.317 48.952 18.36 71.546 13.893 28.424 33.708 51.865 59.386 70.281 22.619 16.221 47.676 26.823 75.107 31.754 10.743 1.931 21.565 2.927 32.473 2.976 3.688 0.016 6.394-1.789 7.515-4.841 1.837-5.003-1.652-9.71-7.186-10.067 -8.608-0.555-17.252-0.958-25.79-2.101 -16.941-2.268-33.063-7.47-48.415-14.968 -29.279-14.301-52.729-35.194-70.26-62.661 -12.57-19.696-20.675-41.12-24.431-64.192 -1.637-10.058-2.295-20.178-2.243-30.358 0.038-7.408 0.051-14.817-0.029-22.225 -0.016-1.489 0.494-2.388 1.664-3.224 6.763-4.834 14.412-7.53 22.499-8.789 6-0.934 12.115-1.134 18.181-1.633C112.752 57.263 113.467 57.381 114.226 57.42zM40.653 90.705c0-10.844 0.073-18.108-0.031-25.369 -0.053-3.674-2.812-6.674-6.327-7.303 -3.638-0.65-7.283 1.298-8.61 4.764 -0.431 1.124-0.661 2.401-0.654 3.606 0.073 13.504 0.013 27.013 0.39 40.51 0.339 12.146 2.413 24.098 5.301 35.894 1.083 4.422 5.31 7.055 9.389 6.033 4.42-1.108 6.914-5.058 5.808-9.668C41.811 122.054 40.201 104.697 40.653 90.705zM0.022 104.597c0.443 12.956 2.444 25.671 5.676 38.206 0.887 3.439 3.09 5.579 6.575 6.121 3.232 0.503 5.823-0.81 7.653-3.506 1.345-1.981 1.561-4.214 0.968-6.471 -3.669-13.967-5.307-28.17-5.219-42.603 0.028-4.681-3.517-8.107-7.934-8.049 -4.347 0.058-7.59 3.397-7.706 8.034C-0.035 99.084 0.022 101.841 0.022 104.597z"/></g></svg>